#tb 0: 1/1000
0,          0,          0,        0,    61776, d45b561f81cbfcca8a1dddbc2bf8ca31
0,         33,         33,        0,    61776, 3664f63b2e59e380622caadb7a05545e
0,         66,         66,        0,    61776, 0662fa199512320704efecc10af1aaa4
0,        100,        100,        0,    61776, d8dc00882e73be89d0585663892cbcff
0,        133,        133,        0,    61776, ff64b8d50b7c5b484a06dab09a26147c
0,        166,        166,        0,    61776, 1771b6a55112eb7ea10885d1390339cc
0,        200,        200,        0,    61776, 0d5944e8a13e3c2faffb562bbe2671a8
0,        233,        233,        0,    61776, 744bed3a88407b75a8ff27a1b0cec64e
0,        266,        266,        0,    61776, 3887415f2ab10d2a265c4a413e7060b9
0,        300,        300,        0,    61776, 7dd683019b19b464bc0436f41e0b7c87
